<svg xmlns="http://www.w3.org/2000/svg" width="629.9421997070312" height="675.43017578125" viewBox="-253.02484130859375 -275.6839904785156 629.9421997070312 675.43017578125"><title>Neo4j Graph Visualization</title><desc>Created using Neo4j (http://www.neo4j.com/)</desc><g class="layer relationships"><g class="relationship" transform="translate(-9.819534203829349 74.75780483276517) rotate(383.9221882742809)"><path class="outline" fill="#A5ABB6" stroke="none" d="M 24.018736134675446,6.953439040707552 L 24.277555179777966,5.987513214418485 A 165.56022128913358 165.56022128913358 0 0 0 42.414056262168984,9.7739128134358 L 42.264783465200054,10.762708865250858 A 166.56022128913358 166.56022128913358 0 0 1 24.018736134675446,6.953439040707552 Z M 87.83705432838383,11.33637118513073 L 87.71271875409542,10.34413095969822 A 165.56022128913358 165.56022128913358 0 0 0 105.93878409427253,7.015462209191437 L 105.23551569626103,4.09905799160459 L 112.86093866831042,5.860569983429098 L 106.87647529162119,10.904001165973899 L 106.17320689360969,7.987596948387052 A 166.56022128913358 166.56022128913358 0 0 1 87.83705432838383,11.33637118513073"/><text text-anchor="middle" pointer-events="none" font-size="8px" fill="#000000" x="65.03749828689429" y="15.115685818997093" font-family="sans-serif">hasSection</text></g><g class="relationship" transform="translate(233.23588850111142 177.08232633175817) rotate(201.6482161434124)"><path class="outline" fill="#A5ABB6" stroke="none" d="M 24.018736134675446,6.953439040707552 L 24.277555179777966,5.987513214418485 A 144.69006714402926 144.69006714402926 0 0 0 40.66756991664129,9.37705142348267 L 40.52202758126998,10.36640344810013 A 145.69006714402926 145.69006714402926 0 0 1 24.018736134675446,6.953439040707552 Z M 79.00689294305785,10.889210661461021 L 78.88827955308557,9.896270147774885 A 144.69006714402926 144.69006714402926 0 0 0 95.36432105836901,6.953209043842557 L 94.66686708253246,4.035408853358332 L 102.2887638321383,5.812116465304632 L 96.29425969281775,10.843609297821525 L 95.5968057169812,7.925809107337299 A 145.69006714402926 145.69006714402926 0 0 1 79.00689294305785,10.889210661461021"/><text text-anchor="middle" pointer-events="none" font-size="8px" fill="#000000" x="59.75391163143824" y="14.404312471794668" transform="rotate(180 59.75391163143824 11.404312471794668)" font-family="sans-serif">locatedIn</text></g><g class="relationship" transform="translate(102.84393278919511 251.54137861088338) rotate(275.99212309066695)"><path class="outline" fill="#A5ABB6" stroke="none" d="M 24.018736134675446,6.953439040707552 L 24.277555179777966,5.987513214418485 A 135.22869188709998 135.22869188709998 0 0 0 38.293805355398646,8.957388124729874 L 38.138634803674464,9.945275820714386 A 136.22869188709998 136.22869188709998 0 0 1 24.018736134675446,6.953439040707552 Z M 76.61617671626978,10.487389568075486 L 76.48889911863873,9.495522433252859 A 135.22869188709998 135.22869188709998 0 0 0 90.58325496596728,6.921700524619936 L 89.8887439466421,4.0031984355276755 L 97.50884501040342,5.78759182770988 L 91.50926965840087,10.813036643409617 L 90.81475863907568,7.894534554317357 A 136.22869188709998 136.22869188709998 0 0 1 76.61617671626978,10.487389568075486"/><text text-anchor="middle" pointer-events="none" font-size="8px" fill="#000000" x="57.365211405628266" y="14.08184990853431" font-family="sans-serif">locatedIn</text></g><g class="relationship" transform="translate(212.58100190978135 49.9013954088869) rotate(500.3247737675703)"><path class="outline" fill="#A5ABB6" stroke="none" d="M 24.018736134675446,6.953439040707552 L 24.277555179777966,5.987513214418485 A 143.5972232539664 143.5972232539664 0 0 0 40.393031266592956,9.329192634815712 L 40.246439155421555,10.318389659145197 A 144.5972232539664 144.5972232539664 0 0 1 24.018736134675446,6.953439040707552 Z M 78.73056066009211,10.8433592236577 L 78.61100574133695,9.850531634697035 A 143.5972232539664 143.5972232539664 0 0 0 94.81163740081554,6.949682674941912 L 94.1145127922138,4.03180377408227 L 101.73620893758833,5.809371738347801 L 95.7411368789512,10.840187876088102 L 95.04401227034946,7.92230897522846 A 144.5972232539664 144.5972232539664 0 0 1 78.73056066009211,10.8433592236577"/><text text-anchor="middle" pointer-events="none" font-size="8px" fill="#000000" x="59.4777753279476" y="14.367064842455164" transform="rotate(180 59.4777753279476 11.367064842455164)" font-family="sans-serif">locatedIn</text></g><g class="relationship" transform="translate(10.992025322561195 321.0831566141331) rotate(322.87035927017405)"><path class="outline" fill="#A5ABB6" stroke="none" d="M 24.018736134675446,6.953439040707552 L 24.277555179777966,5.987513214418485 A 122.07246641748252 122.07246641748252 0 0 0 35.00615707330982,8.35047251716864 L 34.83522518415974,9.33575536451329 A 123.07246641748252 123.07246641748252 0 0 1 24.018736134675446,6.953439040707552 Z M 73.2983256443862,9.907086878816699 L 73.15673352569075,8.917161794821283 A 122.07246641748252 122.07246641748252 0 0 0 83.95078549339608,6.873900339494643 L 83.26073919681086,3.9543393950084655 L 90.87810207996137,5.75038580487683 L 84.87084722217638,10.766648265476213 L 84.18080092559116,7.8470873209900365 A 123.07246641748252 123.07246641748252 0 0 1 73.2983256443862,9.907086878816699"/><text text-anchor="middle" pointer-events="none" font-size="8px" fill="#000000" x="54.051741806389444" y="13.633511573228049" font-family="sans-serif">locatedIn</text></g><g class="relationship" transform="translate(106.4170725103576 370.74614345052845) rotate(268.28308420131424)"><path class="outline" fill="#A5ABB6" stroke="none" d="M 24.018736134675446,6.953439040707552 L 24.277555179777966,5.987513214418485 A 130.12472781475577 130.12472781475577 0 0 0 37.0163890209209,8.72550797311331 L 36.85546707850648,9.71247510957204 A 131.12472781475577 131.12472781475577 0 0 1 24.018736134675446,6.953439040707552 Z M 75.3280944416403,10.265579849100789 L 75.1956115625211,9.27439455525294 A 130.12472781475577 130.12472781475577 0 0 0 88.00789033835568,6.903737367639316 L 87.31505713441342,3.984836521170717 L 94.93413118077278,5.7736100328521465 L 88.93166794361201,10.795605162930782 L 88.23883473966976,7.876704316462183 A 131.12472781475577 131.12472781475577 0 0 1 75.3280944416403,10.265579849100789"/><text text-anchor="middle" pointer-events="none" font-size="8px" fill="#000000" x="56.078570391759804" y="13.907908734795342" transform="rotate(180 56.078570391759804 10.907908734795342)" font-family="sans-serif">locatedIn</text></g><g class="relationship" transform="translate(196.2860778338679 324.84812298971565) rotate(218.1147085872173)"><path class="outline" fill="#A5ABB6" stroke="none" d="M 24.018736134675446,6.953439040707552 L 24.277555179777966,5.987513214418485 A 129.14646200018285 129.14646200018285 0 0 0 36.771822358199316,8.680573866024474 L 36.60974825666639,9.667352455988947 A 130.14646200018285 130.14646200018285 0 0 1 24.018736134675446,6.953439040707552 Z M 75.0813422093302,10.222612418051682 L 74.94781400741664,9.231567404294111 A 129.14646200018285 129.14646200018285 0 0 0 87.51459850253906,6.900212550961705 L 86.82209452942682,3.9812335775492937 L 94.44096676935338,5.770866442601903 L 88.43793713335536,10.792184515511588 L 87.74543316024312,7.873205542099176 A 130.14646200018285 130.14646200018285 0 0 1 75.0813422093302,10.222612418051682"/><text text-anchor="middle" pointer-events="none" font-size="8px" fill="#000000" x="55.83212849598095" y="13.874570907226769" transform="rotate(180 55.83212849598095 10.874570907226769)" font-family="sans-serif">locatedIn</text></g><g class="relationship" transform="translate(115.56194639531125 130.37732908651356) rotate(455.99212309066695)"><path class="outline" fill="#A5ABB6" stroke="none" d="M 24.018736134675446,6.953439040707552 L 24.277555179777966,5.987513214418485 A 135.22869188709998 135.22869188709998 0 0 0 39.60969502071068,9.15744829279356 L 39.464255315650384,10.146815409789042 A 136.22869188709998 136.22869188709998 0 0 1 24.018736134675446,6.953439040707552 Z M 75.28540448428714,10.651502987147865 L 75.16789555002318,9.658431161765549 A 135.22869188709998 135.22869188709998 0 0 0 90.58325496596728,6.921700524619936 L 89.8887439466421,4.0031984355276755 L 97.50884501040342,5.78759182770988 L 91.50926965840087,10.813036643409617 L 90.81475863907568,7.894534554317357 A 136.22869188709998 136.22869188709998 0 0 1 75.28540448428714,10.651502987147865"/><text text-anchor="middle" pointer-events="none" font-size="8px" fill="#000000" x="57.365211405628266" y="14.08184990853431" transform="rotate(180 57.365211405628266 11.08184990853431)" font-family="sans-serif">contains</text></g><g class="relationship" transform="translate(128.18762680645025 -165.88886072046557) rotate(527.4770841923543)"><path class="outline" fill="#A5ABB6" stroke="none" d="M 24.018736134675446,6.953439040707552 L 24.277555179777966,5.987513214418485 A 120.00066959358129 120.00066959358129 0 0 0 34.49004419543006,8.251933449990887 L 34.31632875058443,9.236729339615792 A 121.00066959358129 121.00066959358129 0 0 1 24.018736134675446,6.953439040707552 Z M 72.77655856059258,9.812935462496554 L 72.63242262544841,8.823377565150409 A 120.00066959358129 120.00066959358129 0 0 0 82.90816342129352,6.865909303674152 L 82.218863529409,3.946172045109951 L 89.83576700659074,5.744165765704312 L 83.82722994380622,10.758892315093085 L 83.1379300519217,7.8391550565288854 A 121.00066959358129 121.00066959358129 0 0 1 72.77655856059258,9.812935462496554"/><text text-anchor="middle" pointer-events="none" font-size="8px" fill="#000000" x="53.530891229460316" y="13.562915578657467" transform="rotate(180 53.530891229460316 10.562915578657467)" font-family="sans-serif">locatedIn</text></g><g class="relationship" transform="translate(45.439850404131946 -246.6839964856461) rotate(465.213012517125)"><path class="outline" fill="#A5ABB6" stroke="none" d="M 24.018736134675446,6.953439040707552 L 24.277555179777966,5.987513214418485 A 110.46372896651692 110.46372896651692 0 0 0 32.12093738028909,7.78570958100444 L 31.933122476309574,8.767914020947146 A 111.46372896651692 111.46372896651692 0 0 1 24.018736134675446,6.953439040707552 Z M 70.3773153024593,9.36760312916907 L 70.22022704213056,8.380018561414545 A 110.46372896651692 110.46372896651692 0 0 0 78.11587946256941,6.827334636169049 L 77.43018269125545,3.9067490890895584 L 85.04486186764055,5.71413976094971 L 79.03014182432136,10.721448698941701 L 78.3444450530074,7.800863151862211 A 111.46372896651692 111.46372896651692 0 0 1 70.3773153024593,9.36760312916907"/><text text-anchor="middle" pointer-events="none" font-size="8px" fill="#000000" x="51.13696472870082" y="13.237975715204556" transform="rotate(180 51.13696472870082 10.237975715204556)" font-family="sans-serif">locatedIn</text></g><g class="relationship" transform="translate(-92.33527216605466 -163.69278508676757) rotate(371.6853917154022)"><path class="outline" fill="#A5ABB6" stroke="none" d="M 24.018736134675446,6.953439040707552 L 24.277555179777966,5.987513214418485 A 114.44885319574585 114.44885319574585 0 0 0 33.10949028488017,7.983211005939168 L 32.92784051547145,8.966574296526005 A 115.44885319574585 115.44885319574585 0 0 1 24.018736134675446,6.953439040707552 Z M 71.37935450381252,9.55623668649055 L 71.22794324295579,8.567765832046291 A 114.44885319574585 114.44885319574585 0 0 0 80.11691986556693,6.843822103704581 L 79.42968305043486,3.923598557479545 L 87.04531427594736,5.726973459433922 L 81.03323561907636,10.737453498671297 L 80.3459988039443,7.817229952446261 A 115.44885319574585 115.44885319574585 0 0 1 71.37935450381252,9.55623668649055"/><text text-anchor="middle" pointer-events="none" font-size="8px" fill="#000000" x="52.136539470569765" y="13.37374950252574" font-family="sans-serif">locatedIn</text></g><g class="relationship" transform="translate(-21.98789552045865 -35.98370397085724) rotate(290.2177187221895)"><path class="outline" fill="#A5ABB6" stroke="none" d="M 24.018736134675446,6.953439040707552 L 24.277555179777966,5.987513214418485 A 115.79240212621782 115.79240212621782 0 0 0 34.75313378591791,8.280363069721417 L 34.58478335890936,9.26609028032587 A 116.79240212621782 116.79240212621782 0 0 1 24.018736134675446,6.953439040707552 Z M 70.38963963520638,9.81205122471674 L 70.25142169283073,8.821649386872409 A 115.79240212621782 115.79240212621782 0 0 0 80.79203768733603,6.84925945362944 L 80.1042929889355,3.9291554777713973 L 87.7202377474049,5.731205820004518 L 81.70903061853676,10.742731421440164 L 81.02128592013622,7.822627445582121 A 116.79240212621782 116.79240212621782 0 0 1 70.38963963520638,9.81205122471674"/><text text-anchor="middle" pointer-events="none" font-size="8px" fill="#000000" x="52.473786098963835" y="13.41952649600887" font-family="sans-serif">contains</text></g><g class="relationship" transform="translate(233.23588850111142 177.08232633175817) rotate(378.6997739141561)"><path class="outline" fill="#A5ABB6" stroke="none" d="M 24.018736134675446,6.953439040707552 L 24.277555179777966,5.987513214418485 A 133.72673322338747 133.72673322338747 0 0 0 35.51520654486609,8.485644663806823 L 35.34042194145082,9.470251358080702 A 134.72673322338747 134.72673322338747 0 0 1 24.018736134675446,6.953439040707552 Z M 78.66798458826855,10.08431237992815 L 78.52117330933598,9.095147859548348 A 133.72673322338747 133.72673322338747 0 0 0 89.82510662782192,6.916487612306524 L 89.13108250927544,3.997869699170962 L 96.7508857782293,5.783534321220663 L 90.75047211921722,10.807978163153939 L 90.05644800067074,7.8893602500183775 A 134.72673322338747 134.72673322338747 0 0 1 78.66798458826855,10.08431237992815"/><text text-anchor="middle" pointer-events="none" font-size="8px" fill="#000000" x="56.98643969122607" y="14.030662757969708" font-family="sans-serif">hasSchool</text></g><g class="relationship" transform="translate(212.58100190978135 49.9013954088869) rotate(356.84580104584415)"><path class="outline" fill="#A5ABB6" stroke="none" d="M 24.018736134675446,-6.953439040707552 L 24.277555179777966,-5.987513214418485 A 134.76236197667322 134.76236197667322 0 0 1 35.77398633680596,-8.53536528157079 L 35.60047620873637,-9.520197366475259 A 135.76236197667322 135.76236197667322 0 0 0 24.018736134675446,-6.953439040707552 Z M 78.9297216513124,-10.131785181748882 L 78.78407671451933,-9.142448256133264 A 134.76236197667322 134.76236197667322 0 0 1 90.34783891872628,-6.920088431772881 L 89.6534784732975,-4.001550514968654 L 97.2734874655076,-5.7863370452397795 L 91.27365284596465,-10.811472320845184 L 90.57929240053586,-7.892934404040957 A 135.76236197667322 135.76236197667322 0 0 0 78.9297216513124,-10.131785181748882"/><text text-anchor="middle" pointer-events="none" font-size="8px" fill="#000000" x="57.247596939609444" y="-8.065957178408382" font-family="sans-serif">hasSchool</text></g><g class="relationship" transform="translate(212.58100190978135 49.9013954088869) rotate(304.95654522370813)"><path class="outline" fill="#A5ABB6" stroke="none" d="M 24.018736134675446,-6.953439040707552 L 24.277555179777966,-5.987513214418485 A 128.87952398491132 128.87952398491132 0 0 1 34.30545501981083,-8.250031483241202 L 34.124444299335636,-9.233512606127178 A 129.87952398491132 129.87952398491132 0 0 0 24.018736134675446,-6.953439040707552 Z M 77.44345464254252,-9.859405252493787 L 77.29093310932514,-8.87110510481341 A 128.87952398491132 128.87952398491132 0 0 1 87.3800131472397,-6.899246056341212 L 86.6875994483832,-3.9802456675718227 L 94.30641633751102,-5.770114157137587 L 88.3032314123817,-10.791246574700398 L 87.61081771352521,-7.872246185931008 A 129.87952398491132 129.87952398491132 0 0 0 77.44345464254252,-9.859405252493787"/><text text-anchor="middle" pointer-events="none" font-size="8px" fill="#000000" x="55.76489174303651" y="-7.865474126121256" font-family="sans-serif">hasSchool</text></g><g class="relationship" transform="translate(102.84393278919511 251.54137861088338) rotate(502.87035927017405)"><path class="outline" fill="#A5ABB6" stroke="none" d="M 24.018736134675446,6.953439040707552 L 24.277555179777966,5.987513214418485 A 122.07246641748252 122.07246641748252 0 0 0 32.61097214732074,7.910289182880362 L 32.420419249467535,8.891966111976558 A 123.07246641748252 123.07246641748252 0 0 1 24.018736134675446,6.953439040707552 Z M 75.72524739701402,9.535216727401362 L 75.56393582503,8.548313197797754 A 122.07246641748252 122.07246641748252 0 0 0 83.95078549339608,6.873900339494643 L 83.26073919681086,3.9543393950084655 L 90.87810207996137,5.75038580487683 L 84.87084722217638,10.766648265476213 L 84.18080092559116,7.8470873209900365 A 123.07246641748252 123.07246641748252 0 0 1 75.72524739701402,9.535216727401362"/><text text-anchor="middle" pointer-events="none" font-size="8px" fill="#000000" x="54.051741806389444" y="13.633511573228049" transform="rotate(180 54.051741806389444 10.633511573228049)" font-family="sans-serif">hasSchool</text></g><g class="relationship" transform="translate(-224.02483774018515 147.2041560608246) rotate(445.9608619695843)"><path class="outline" fill="#A5ABB6" stroke="none" d="M 24.018736134675446,-6.953439040707552 L 24.277555179777966,-5.987513214418485 A 111.43380452180207 111.43380452180207 0 0 1 29.9747388466495,-7.3546120614541906 L 29.767045971844404,-8.332806147387643 A 112.43380452180207 112.43380452180207 0 0 0 24.018736134675446,-6.953439040707552 Z M 73.04309130592534,-9.005054038125664 L 72.86588174397541,-8.020880897284314 A 111.43380452180207 111.43380452180207 0 0 1 78.60277921429449,-6.831398486031181 L 77.91670284997929,-3.9109020860457187 L 85.53161687497976,-5.717303035959967 L 79.51754770004808,-10.725393686011797 L 78.83147133573289,-7.804897286026335 A 112.43380452180207 112.43380452180207 0 0 0 73.04309130592534,-9.005054038125664"/><text text-anchor="middle" pointer-events="none" font-size="8px" fill="#000000" x="51.380181770851564" y="-7.271025456790255" font-family="sans-serif">hasSchool</text></g><g class="relationship" transform="translate(16.73681955140021 -141.13404118573973) rotate(347.47708419235425)"><path class="outline" fill="#A5ABB6" stroke="none" d="M 24.018736134675446,6.953439040707552 L 24.277555179777966,5.987513214418485 A 120.00066959358129 120.00066959358129 0 0 0 32.096359359634064,7.804604700678823 L 31.902696652461465,8.785672871526586 A 121.00066959358129 121.00066959358129 0 0 1 24.018736134675446,6.953439040707552 Z M 75.20261969639805,9.43438664420637 L 75.03843378017564,8.447957232178226 A 120.00066959358129 120.00066959358129 0 0 0 82.90816342129352,6.865909303674152 L 82.218863529409,3.946172045109951 L 89.83576700659074,5.744165765704312 L 83.82722994380622,10.758892315093085 L 83.1379300519217,7.8391550565288854 A 121.00066959358129 121.00066959358129 0 0 1 75.20261969639805,9.43438664420637"/><text text-anchor="middle" pointer-events="none" font-size="8px" fill="#000000" x="53.530891229460316" y="13.562915578657467" font-family="sans-serif">hasSchool</text></g><g class="relationship" transform="translate(-21.98789552045865 -35.98370397085724) rotate(443.72945178360106)"><path class="outline" fill="#A5ABB6" stroke="none" d="M 24.018736134675446,-6.953439040707552 L 24.277555179777966,-5.987513214418485 A 114.50374095130324 114.50374095130324 0 0 1 38.154224828596014,-8.799492774441816 L 38.01659544536419,-9.78997657182127 A 115.50374095130324 115.50374095130324 0 0 0 24.018736134675446,-6.953439040707552 Z M 66.29534416737029,-10.223536359400441 L 66.1881438291654,-9.2292989192038 A 114.50374095130324 114.50374095130324 0 0 1 80.14449561972641,-6.844045413489699 L 79.4572379460032,-3.9238267761427337 L 87.07288205248986,-5.727147281026713 L 81.06083918469068,-10.737670263285652 L 80.37358151096747,-7.817451625938688 A 115.50374095130324 115.50374095130324 0 0 0 66.29534416737029,-10.223536359400441"/><text text-anchor="middle" pointer-events="none" font-size="8px" fill="#000000" x="52.150314527043925" y="-7.3756196017186255" font-family="sans-serif">partOf</text></g><g class="relationship" transform="translate(-121.6968448566023 105.90705012094433) rotate(344.4415606810463)"><path class="outline" fill="#A5ABB6" stroke="none" d="M 24.018736134675446,-6.953439040707552 L 24.277555179777966,-5.987513214418485 A 123.91260275948889 123.91260275948889 0 0 1 40.50684959547377,-9.19292057532482 L 40.379004269381866,-10.18471469337375 A 124.91260275948889 124.91260275948889 0 0 0 24.018736134675446,-6.953439040707552 Z M 68.65908687093072,-10.601625893833528 L 68.56053324305958,-9.606494152588468 A 123.91260275948889 123.91260275948889 0 0 1 84.87726397305383,-6.880887455805403 L 84.1865650456912,-3.9614808394293775 L 91.80432923249165,-5.755824394688599 L 85.798195876204,-10.773429610973436 L 85.10749694884137,-7.85402299459741 A 124.91260275948889 124.91260275948889 0 0 0 68.65908687093072,-10.601625893833528"/><text text-anchor="middle" pointer-events="none" font-size="8px" fill="#000000" x="54.51457801128068" y="-7.6962154837789996" font-family="sans-serif">partOf</text></g><g class="relationship" transform="translate(115.56194639531125 130.37732908651356) rotate(203.92218827428093)"><path class="outline" fill="#A5ABB6" stroke="none" d="M 24.018736134675446,6.953439040707552 L 24.277555179777966,5.987513214418485 A 165.56022128913358 165.56022128913358 0 0 0 50.99663499317945,10.841116832554349 L 50.89920181483498,11.836358901479116 A 166.56022128913358 166.56022128913358 0 0 1 24.018736134675446,6.953439040707552 Z M 79.17834604882755,12.192335884372824 L 79.10599592588244,11.194956588563116 A 165.56022128913358 165.56022128913358 0 0 0 105.93878409427253,7.015462209191437 L 105.23551569626103,4.09905799160459 L 112.86093866831042,5.860569983429098 L 106.87647529162119,10.904001165973899 L 106.17320689360969,7.987596948387052 A 166.56022128913358 166.56022128913358 0 0 1 79.17834604882755,12.192335884372824"/><text text-anchor="middle" pointer-events="none" font-size="8px" fill="#000000" x="65.03749828689429" y="15.115685818997093" transform="rotate(180 65.03749828689429 12.115685818997093)" font-family="sans-serif">partOf</text></g><g class="relationship" transform="translate(-9.819534203829349 74.75780483276517) rotate(524.4415606810463)"><path class="outline" fill="#A5ABB6" stroke="none" d="M 24.018736134675446,-6.953439040707552 L 24.277555179777966,-5.987513214418485 A 123.91260275948889 123.91260275948889 0 0 1 31.982287643091038,-7.790426030105806 L 31.785647361824733,-8.77090173086718 A 124.91260275948889 124.91260275948889 0 0 0 24.018736134675446,-6.953439040707552 Z M 77.29038577505291,-9.441742597415 L 77.1227334436607,-8.4558964147989 A 123.91260275948889 123.91260275948889 0 0 1 84.87726397305383,-6.880887455805403 L 84.1865650456912,-3.9614808394293775 L 91.80432923249165,-5.755824394688599 L 85.798195876204,-10.773429610973436 L 85.10749694884137,-7.85402299459741 A 124.91260275948889 124.91260275948889 0 0 0 77.29038577505291,-9.441742597415"/><text text-anchor="middle" pointer-events="none" font-size="8px" fill="#000000" x="54.51457801128068" y="-7.6962154837789996" transform="rotate(180 54.51457801128068 -10.696215483779)" font-family="sans-serif">hasSection</text></g><g class="relationship" transform="translate(-224.02483774018515 147.2041560608246) rotate(338.0221873064356)"><path class="outline" fill="#A5ABB6" stroke="none" d="M 24.018736134675446,6.953439040707552 L 24.277555179777966,5.987513214418485 A 112.38752525486557 112.38752525486557 0 0 0 32.59788956242353,7.881564597739143 L 32.41310306109112,8.864343285402498 A 113.38752525486557 113.38752525486557 0 0 1 24.018736134675446,6.953439040707552 Z M 70.86095238568012,9.459152693611543 L 70.70665529524908,8.471128195997991 A 112.38752525486557 112.38752525486557 0 0 0 79.08159790112222,6.835361944352483 L 78.39515132188326,3.91495253917465 L 86.01029427641032,5.720388160324573 L 79.99686000677416,10.72924115125626 L 79.3104134275352,7.808831746078427 A 113.38752525486557 113.38752525486557 0 0 1 70.86095238568012,9.459152693611543"/><text text-anchor="middle" pointer-events="none" font-size="8px" fill="#000000" x="51.61936390366054" y="13.303518563263538" font-family="sans-serif">locatedIn</text></g><g class="relationship" transform="translate(-9.819534203829349 74.75780483276517) rotate(263.72945178360106)"><path class="outline" fill="#A5ABB6" stroke="none" d="M 24.018736134675446,-6.953439040707552 L 24.277555179777966,-5.987513214418485 A 114.50374095130324 114.50374095130324 0 0 1 29.65129937525544,-7.289198723739688 L 29.439411060545066,-8.26649261100657 A 115.50374095130324 115.50374095130324 0 0 0 24.018736134675446,-6.953439040707552 Z M 74.91520126205315,-8.963711364692713 L 74.73337254364438,-7.980381146931748 A 114.50374095130324 114.50374095130324 0 0 1 80.14449561972641,-6.844045413489699 L 79.4572379460032,-3.9238267761427337 L 87.07288205248986,-5.727147281026713 L 81.06083918469068,-10.737670263285652 L 80.37358151096747,-7.817451625938688 A 115.50374095130324 115.50374095130324 0 0 0 74.91520126205315,-8.963711364692713"/><text text-anchor="middle" pointer-events="none" font-size="8px" fill="#000000" x="52.150314527043925" y="-7.3756196017186255" transform="rotate(180 52.150314527043925 -10.375619601718626)" font-family="sans-serif">hasSection</text></g><g class="relationship" transform="translate(16.73681955140021 -141.13404118573973) rotate(470.2177187221895)"><path class="outline" fill="#A5ABB6" stroke="none" d="M 24.018736134675446,6.953439040707552 L 24.277555179777966,5.987513214418485 A 115.79240212621782 115.79240212621782 0 0 0 33.44324083257378,8.048898000714217 L 33.26357797979901,9.032626245369642 A 116.79240212621782 116.79240212621782 0 0 1 24.018736134675446,6.953439040707552 Z M 71.71734894850277,9.618978469533204 L 71.56776289237037,8.630229759389536 A 115.79240212621782 115.79240212621782 0 0 0 80.79203768733603,6.84925945362944 L 80.1042929889355,3.9291554777713973 L 87.7202377474049,5.731205820004518 L 81.70903061853676,10.742731421440164 L 81.02128592013622,7.822627445582121 A 116.79240212621782 116.79240212621782 0 0 1 71.71734894850277,9.618978469533204"/><text text-anchor="middle" pointer-events="none" font-size="8px" fill="#000000" x="52.473786098963835" y="13.41952649600887" transform="rotate(180 52.473786098963835 10.41952649600887)" font-family="sans-serif">locatedIn</text></g><g class="relationship" transform="translate(115.56194639531125 130.37732908651356) rotate(381.6482161434124)"><path class="outline" fill="#A5ABB6" stroke="none" d="M 24.018736134675446,6.953439040707552 L 24.277555179777966,5.987513214418485 A 144.69006714402926 144.69006714402926 0 0 0 41.98560358102114,9.564754809849006 L 41.849170603952004,10.555404113471667 A 145.69006714402926 145.69006714402926 0 0 1 24.018736134675446,6.953439040707552 Z M 77.67510556074728,11.042090426252912 L 77.56563340743182,10.048100563302341 A 144.69006714402926 144.69006714402926 0 0 0 95.36432105836901,6.953209043842557 L 94.66686708253246,4.035408853358332 L 102.2887638321383,5.812116465304632 L 96.29425969281775,10.843609297821525 L 95.5968057169812,7.925809107337299 A 145.69006714402926 145.69006714402926 0 0 1 77.67510556074728,11.042090426252912"/><text text-anchor="middle" pointer-events="none" font-size="8px" fill="#000000" x="59.75391163143824" y="14.404312471794668" font-family="sans-serif">contains</text></g><g class="relationship" transform="translate(115.56194639531125 130.37732908651356) rotate(320.3247737675703)"><path class="outline" fill="#A5ABB6" stroke="none" d="M 24.018736134675446,6.953439040707552 L 24.277555179777966,5.987513214418485 A 143.5972232539664 143.5972232539664 0 0 0 41.71083699468271,9.51824360957363 L 41.57342198107787,10.508757170326817 A 144.5972232539664 144.5972232539664 0 0 1 24.018736134675446,6.953439040707552 Z M 77.39887888264289,10.997459361587545 L 77.28853355828714,10.003566052729468 A 143.5972232539664 143.5972232539664 0 0 0 94.81163740081554,6.949682674941912 L 94.1145127922138,4.03180377408227 L 101.73620893758833,5.809371738347801 L 95.7411368789512,10.840187876088102 L 95.04401227034946,7.92230897522846 A 144.5972232539664 144.5972232539664 0 0 1 77.39887888264289,10.997459361587545"/><text text-anchor="middle" pointer-events="none" font-size="8px" fill="#000000" x="59.4777753279476" y="14.367064842455164" font-family="sans-serif">contains</text></g><g class="relationship" transform="translate(102.84393278919511 251.54137861088338) rotate(448.28308420131424)"><path class="outline" fill="#A5ABB6" stroke="none" d="M 24.018736134675446,6.953439040707552 L 24.277555179777966,5.987513214418485 A 130.12472781475577 130.12472781475577 0 0 0 34.61599346681375,8.311029807634043 L 34.436624641978,9.29481170657155 A 131.12472781475577 131.12472781475577 0 0 1 24.018736134675446,6.953439040707552 Z M 77.75794386265557,9.91762404422218 L 77.60693015825642,8.929092374985629 A 130.12472781475577 130.12472781475577 0 0 0 88.00789033835568,6.903737367639316 L 87.31505713441342,3.984836521170717 L 94.93413118077278,5.7736100328521465 L 88.93166794361201,10.795605162930782 L 88.23883473966976,7.876704316462183 A 131.12472781475577 131.12472781475577 0 0 1 77.75794386265557,9.91762404422218"/><text text-anchor="middle" pointer-events="none" font-size="8px" fill="#000000" x="56.078570391759804" y="13.907908734795342" font-family="sans-serif">hasSchool</text></g><g class="relationship" transform="translate(102.84393278919511 251.54137861088338) rotate(398.1147085872173)"><path class="outline" fill="#A5ABB6" stroke="none" d="M 24.018736134675446,6.953439040707552 L 24.277555179777966,5.987513214418485 A 129.14646200018285 129.14646200018285 0 0 0 34.37201192701882,8.263136255218157 L 34.19135574128465,9.246682564527475 A 130.14646200018285 130.14646200018285 0 0 1 24.018736134675446,6.953439040707552 Z M 77.51086789464952,9.87191246023832 L 77.35867206514177,8.88356210258145 A 129.14646200018285 129.14646200018285 0 0 0 87.51459850253906,6.900212550961705 L 86.82209452942682,3.9812335775492937 L 94.44096676935338,5.770866442601903 L 88.43793713335536,10.792184515511588 L 87.74543316024312,7.873205542099176 A 130.14646200018285 130.14646200018285 0 0 1 77.51086789464952,9.87191246023832"/><text text-anchor="middle" pointer-events="none" font-size="8px" fill="#000000" x="55.83212849598095" y="13.874570907226769" font-family="sans-serif">hasSchool</text></g><g class="relationship" transform="translate(16.73681955140021 -141.13404118573973) rotate(285.213012517125)"><path class="outline" fill="#A5ABB6" stroke="none" d="M 24.018736134675446,6.953439040707552 L 24.277555179777966,5.987513214418485 A 110.46372896651692 110.46372896651692 0 0 0 29.735193971676384,7.302205958604688 L 29.525781540337125,8.28003336341628 A 111.46372896651692 111.46372896651692 0 0 1 24.018736134675446,6.953439040707552 Z M 72.79870213082043,8.955045562954865 L 72.61989033001076,7.971162267085276 A 110.46372896651692 110.46372896651692 0 0 0 78.11587946256941,6.827334636169049 L 77.43018269125545,3.9067490890895584 L 85.04486186764055,5.71413976094971 L 79.03014182432136,10.721448698941701 L 78.3444450530074,7.800863151862211 A 111.46372896651692 111.46372896651692 0 0 1 72.79870213082043,8.955045562954865"/><text text-anchor="middle" pointer-events="none" font-size="8px" fill="#000000" x="51.13696472870082" y="13.237975715204556" font-family="sans-serif">hasSchool</text></g><g class="relationship" transform="translate(16.73681955140021 -141.13404118573973) rotate(191.6853917154022)"><path class="outline" fill="#A5ABB6" stroke="none" d="M 24.018736134675446,6.953439040707552 L 24.277555179777966,5.987513214418485 A 114.44885319574585 114.44885319574585 0 0 0 30.720203793023973,7.515521335336786 L 30.51767756723199,8.494798174574 A 115.44885319574585 115.44885319574585 0 0 1 24.018736134675446,6.953439040707552 Z M 73.8028503059798,9.15858578030776 L 73.63044710163395,8.173559316129612 A 114.44885319574585 114.44885319574585 0 0 0 80.11691986556693,6.843822103704581 L 79.42968305043486,3.923598557479545 L 87.04531427594736,5.726973459433922 L 81.03323561907636,10.737453498671297 L 80.3459988039443,7.817229952446261 A 115.44885319574585 115.44885319574585 0 0 1 73.8028503059798,9.15858578030776"/><text text-anchor="middle" pointer-events="none" font-size="8px" fill="#000000" x="52.136539470569765" y="13.37374950252574" transform="rotate(180 52.136539470569765 10.37374950252574)" font-family="sans-serif">hasSchool</text></g><g class="relationship" transform="translate(347.9173490963962 215.8993547826917) rotate(198.69977391415608)"><path class="outline" fill="#A5ABB6" stroke="none" d="M 24.018736134675446,6.953439040707552 L 24.277555179777966,5.987513214418485 A 133.72673322338747 133.72673322338747 0 0 0 37.91765480538179,8.889583086304782 L 37.76083555715472,9.87721040639343 A 134.72673322338747 134.72673322338747 0 0 1 24.018736134675446,6.953439040707552 Z M 76.23701014916169,10.422515003361866 L 76.10824261240964,9.430840197047416 A 133.72673322338747 133.72673322338747 0 0 0 89.82510662782192,6.916487612306524 L 89.13108250927544,3.997869699170962 L 96.7508857782293,5.783534321220663 L 90.75047211921722,10.807978163153939 L 90.05644800067074,7.8893602500183775 A 134.72673322338747 134.72673322338747 0 0 1 76.23701014916169,10.422515003361866"/><text text-anchor="middle" pointer-events="none" font-size="8px" fill="#000000" x="56.98643969122607" y="14.030662757969708" transform="rotate(180 56.98643969122607 11.030662757969708)" font-family="sans-serif">locatedIn</text></g><g class="relationship" transform="translate(333.9914310409002 43.21085059077733) rotate(536.8458010458442)"><path class="outline" fill="#A5ABB6" stroke="none" d="M 24.018736134675446,-6.953439040707552 L 24.277555179777966,-5.987513214418485 A 134.76236197667322 134.76236197667322 0 0 1 38.176996719253616,-8.936373142988828 L 38.021318056492284,-9.924180894507714 A 135.76236197667322 135.76236197667322 0 0 0 24.018736134675446,-6.953439040707552 Z M 76.49844212179126,-10.467281518687656 L 76.37070553230537,-9.47547339021395 A 134.76236197667322 134.76236197667322 0 0 1 90.34783891872628,-6.920088431772881 L 89.6534784732975,-4.001550514968654 L 97.2734874655076,-5.7863370452397795 L 91.27365284596465,-10.811472320845184 L 90.57929240053586,-7.892934404040957 A 135.76236197667322 135.76236197667322 0 0 0 76.49844212179126,-10.467281518687656"/><text text-anchor="middle" pointer-events="none" font-size="8px" fill="#000000" x="57.247596939609444" y="-8.065957178408382" transform="rotate(180 57.247596939609444 -11.065957178408382)" font-family="sans-serif">locatedIn</text></g><g class="relationship" transform="translate(280.55146725105345 -47.327353180230894) rotate(484.95654522370813)"><path class="outline" fill="#A5ABB6" stroke="none" d="M 24.018736134675446,-6.953439040707552 L 24.277555179777966,-5.987513214418485 A 128.87952398491132 128.87952398491132 0 0 1 36.70510364160741,-8.668284086770555 L 36.54271223743321,-9.65501050875912 A 129.87952398491132 129.87952398491132 0 0 0 24.018736134675446,-6.953439040707552 Z M 75.01401871576473,-10.210861337993947 L 74.88020248614131,-9.219855174194052 A 128.87952398491132 128.87952398491132 0 0 1 87.3800131472397,-6.899246056341212 L 86.6875994483832,-3.9802456675718227 L 94.30641633751102,-5.770114157137587 L 88.3032314123817,-10.791246574700398 L 87.61081771352521,-7.872246185931008 A 129.87952398491132 129.87952398491132 0 0 0 75.01401871576473,-10.210861337993947"/><text text-anchor="middle" pointer-events="none" font-size="8px" fill="#000000" x="55.76489174303651" y="-7.865474126121256" transform="rotate(180 55.76489174303651 -10.865474126121256)" font-family="sans-serif">locatedIn</text></g><g class="relationship" transform="translate(-216.2858920795395 256.80034655473185) rotate(265.9608619695843)"><path class="outline" fill="#A5ABB6" stroke="none" d="M 24.018736134675446,-6.953439040707552 L 24.277555179777966,-5.987513214418485 A 111.43380452180207 111.43380452180207 0 0 1 32.36137734343586,-7.834167158713782 L 32.175102013396724,-8.816664742130044 A 112.43380452180207 112.43380452180207 0 0 0 24.018736134675446,-6.953439040707552 Z M 70.62116828592181,-9.413883983383712 L 70.46549960333911,-8.42607465903869 A 111.43380452180207 111.43380452180207 0 0 1 78.60277921429449,-6.831398486031181 L 77.91670284997929,-3.9109020860457187 L 85.53161687497976,-5.717303035959967 L 79.51754770004808,-10.725393686011797 L 78.83147133573289,-7.804897286026335 A 112.43380452180207 112.43380452180207 0 0 0 70.62116828592181,-9.413883983383712"/><text text-anchor="middle" pointer-events="none" font-size="8px" fill="#000000" x="51.380181770851564" y="-7.271025456790255" transform="rotate(180 51.380181770851564 -10.271025456790255)" font-family="sans-serif">locatedIn</text></g><g class="relationship" transform="translate(-121.6968448566023 105.90705012094433) rotate(518.0221873064356)"><path class="outline" fill="#A5ABB6" stroke="none" d="M 24.018736134675446,6.953439040707552 L 24.277555179777966,5.987513214418485 A 112.38752525486557 112.38752525486557 0 0 0 33.90642897054809,8.119594407502163 L 33.7332855711094,9.104491033159306 A 113.38752525486557 113.38752525486557 0 0 1 24.018736134675446,6.953439040707552 Z M 69.53397300605687,9.65834738873545 L 69.39137896123547,8.668566130890326 A 112.38752525486557 112.38752525486557 0 0 0 79.08159790112222,6.835361944352483 L 78.39515132188326,3.91495253917465 L 86.01029427641032,5.720388160324573 L 79.99686000677416,10.72924115125626 L 79.3104134275352,7.808831746078427 A 113.38752525486557 113.38752525486557 0 0 1 69.53397300605687,9.65834738873545"/><text text-anchor="middle" pointer-events="none" font-size="8px" fill="#000000" x="51.61936390366054" y="13.303518563263538" transform="rotate(180 51.61936390366054 10.303518563263538)" font-family="sans-serif">contains</text></g></g><g class="layer nodes"><g class="node" transform="translate(-9.819534203829349,74.75780483276517)"><circle class="outline" cx="0" cy="0" r="25" fill="#D9C8AE" stroke="#c0a378" stroke-width="2px"/><text text-anchor="middle" pointer-events="none" font-family="sans-serif" dy="1.5625" font-size="25" fill="#604A0E"/><text text-anchor="middle" pointer-events="none" y="5" font-size="10px" fill="#604A0E" font-family="sans-serif"> 中山大学</text></g><g class="node" transform="translate(115.56194639531125,130.37732908651356)"><circle class="outline" cx="0" cy="0" r="25" fill="#57C7E3" stroke="#23b3d7" stroke-width="2px"/><text text-anchor="middle" pointer-events="none" font-family="sans-serif" dy="1.5625" font-size="25" fill="#FFFFFF"/><text text-anchor="middle" pointer-events="none" y="5" font-size="10px" fill="#FFFFFF" font-family="sans-serif"> 广州校区</text></g><g class="node" transform="translate(233.23588850111142,177.08232633175817)"><circle class="outline" cx="0" cy="0" r="25" fill="#F79767" stroke="#f36924" stroke-width="2px"/><text text-anchor="middle" pointer-events="none" font-family="sans-serif" dy="1.5625" font-size="25" fill="#FFFFFF"/><text text-anchor="middle" pointer-events="none" y="5" font-size="10px" fill="#FFFFFF" font-family="sans-serif"> 广州北…</text></g><g class="node" transform="translate(102.84393278919511,251.54137861088338)"><circle class="outline" cx="0" cy="0" r="25" fill="#F79767" stroke="#f36924" stroke-width="2px"/><text text-anchor="middle" pointer-events="none" font-family="sans-serif" dy="1.5625" font-size="25" fill="#FFFFFF"/><text text-anchor="middle" pointer-events="none" y="5" font-size="10px" fill="#FFFFFF" font-family="sans-serif"> 广州东…</text></g><g class="node" transform="translate(212.58100190978135,49.9013954088869)"><circle class="outline" cx="0" cy="0" r="25" fill="#F79767" stroke="#f36924" stroke-width="2px"/><text text-anchor="middle" pointer-events="none" font-family="sans-serif" dy="1.5625" font-size="25" fill="#FFFFFF"/><text text-anchor="middle" pointer-events="none" y="5" font-size="10px" fill="#FFFFFF" font-family="sans-serif"> 广州南…</text></g><g class="node" transform="translate(10.992025322561195,321.0831566141331)"><circle class="outline" cx="0" cy="0" r="25" fill="#F16667" stroke="#eb2728" stroke-width="2px"/><text text-anchor="middle" pointer-events="none" font-family="sans-serif" dy="1.5625" font-size="25" fill="#FFFFFF"/><text text-anchor="middle" pointer-events="none" y="5" font-size="10px" fill="#FFFFFF" font-family="sans-serif"> 数据科…</text></g><g class="node" transform="translate(106.4170725103576,370.74614345052845)"><circle class="outline" cx="0" cy="0" r="25" fill="#F16667" stroke="#eb2728" stroke-width="2px"/><text text-anchor="middle" pointer-events="none" font-family="sans-serif" dy="1.5625" font-size="25" fill="#FFFFFF"/><text text-anchor="middle" pointer-events="none" y="5" font-size="10px" fill="#FFFFFF" font-family="sans-serif"> 管理学院</text></g><g class="node" transform="translate(196.2860778338679,324.84812298971565)"><circle class="outline" cx="0" cy="0" r="25" fill="#F16667" stroke="#eb2728" stroke-width="2px"/><text text-anchor="middle" pointer-events="none" font-family="sans-serif" dy="1.5625" font-size="25" fill="#FFFFFF"/><text text-anchor="middle" pointer-events="none" y="5" font-size="10px" fill="#FFFFFF" font-family="sans-serif"> 法学院</text></g><g class="node" transform="translate(128.18762680645025,-165.88886072046557)"><circle class="outline" cx="0" cy="0" r="25" fill="#F16667" stroke="#eb2728" stroke-width="2px"/><text text-anchor="middle" pointer-events="none" font-family="sans-serif" dy="1.5625" font-size="25" fill="#FFFFFF"/><text text-anchor="middle" pointer-events="none" y="5" font-size="10px" fill="#FFFFFF" font-family="sans-serif"> 智能工…</text></g><g class="node" transform="translate(16.73681955140021,-141.13404118573973)"><circle class="outline" cx="0" cy="0" r="25" fill="#F79767" stroke="#f36924" stroke-width="2px"/><text text-anchor="middle" pointer-events="none" font-family="sans-serif" dy="1.5625" font-size="25" fill="#FFFFFF"/><text text-anchor="middle" pointer-events="none" y="5" font-size="10px" fill="#FFFFFF" font-family="sans-serif"> 深圳校园</text></g><g class="node" transform="translate(45.439850404131946,-246.6839964856461)"><circle class="outline" cx="0" cy="0" r="25" fill="#F16667" stroke="#eb2728" stroke-width="2px"/><text text-anchor="middle" pointer-events="none" font-family="sans-serif" dy="1.5625" font-size="25" fill="#FFFFFF"/><text text-anchor="middle" pointer-events="none" y="5" font-size="10px" fill="#FFFFFF" font-family="sans-serif"> 生物医…</text></g><g class="node" transform="translate(-92.33527216605466,-163.69278508676757)"><circle class="outline" cx="0" cy="0" r="25" fill="#F16667" stroke="#eb2728" stroke-width="2px"/><text text-anchor="middle" pointer-events="none" font-family="sans-serif" dy="1.5625" font-size="25" fill="#FFFFFF"/><text text-anchor="middle" pointer-events="none" y="5" font-size="10px" fill="#FFFFFF" font-family="sans-serif"> 材料学院</text></g><g class="node" transform="translate(-21.98789552045865,-35.98370397085724)"><circle class="outline" cx="0" cy="0" r="25" fill="#57C7E3" stroke="#23b3d7" stroke-width="2px"/><text text-anchor="middle" pointer-events="none" font-family="sans-serif" dy="1.5625" font-size="25" fill="#FFFFFF"/><text text-anchor="middle" pointer-events="none" y="5" font-size="10px" fill="#FFFFFF" font-family="sans-serif"> 深圳校区</text></g><g class="node" transform="translate(347.9173490963962,215.8993547826917)"><circle class="outline" cx="0" cy="0" r="25" fill="#F16667" stroke="#eb2728" stroke-width="2px"/><text text-anchor="middle" pointer-events="none" font-family="sans-serif" dy="1.5625" font-size="25" fill="#FFFFFF"/><text text-anchor="middle" pointer-events="none" y="5" font-size="10px" fill="#FFFFFF" font-family="sans-serif"> 中山医…</text></g><g class="node" transform="translate(333.9914310409002,43.21085059077733)"><circle class="outline" cx="0" cy="0" r="25" fill="#F16667" stroke="#eb2728" stroke-width="2px"/><text text-anchor="middle" pointer-events="none" font-family="sans-serif" dy="1.5625" font-size="25" fill="#FFFFFF"/><text text-anchor="middle" pointer-events="none" y="5" font-size="10px" fill="#FFFFFF" font-family="sans-serif"> 中国语…</text></g><g class="node" transform="translate(280.55146725105345,-47.327353180230894)"><circle class="outline" cx="0" cy="0" r="25" fill="#F16667" stroke="#eb2728" stroke-width="2px"/><text text-anchor="middle" pointer-events="none" font-family="sans-serif" dy="1.5625" font-size="25" fill="#FFFFFF"/><text text-anchor="middle" pointer-events="none" y="5" font-size="10px" fill="#FFFFFF" font-family="sans-serif"> 历史学系</text></g><g class="node" transform="translate(-224.02483774018515,147.2041560608246)"><circle class="outline" cx="0" cy="0" r="25" fill="#F79767" stroke="#f36924" stroke-width="2px"/><text text-anchor="middle" pointer-events="none" font-family="sans-serif" dy="1.5625" font-size="25" fill="#FFFFFF"/><text text-anchor="middle" pointer-events="none" y="5" font-size="10px" fill="#FFFFFF" font-family="sans-serif"> 珠海校园</text></g><g class="node" transform="translate(-216.2858920795395,256.80034655473185)"><circle class="outline" cx="0" cy="0" r="25" fill="#F16667" stroke="#eb2728" stroke-width="2px"/><text text-anchor="middle" pointer-events="none" font-family="sans-serif" dy="1.5625" font-size="25" fill="#FFFFFF"/><text text-anchor="middle" pointer-events="none" y="5" font-size="10px" fill="#FFFFFF" font-family="sans-serif"> 旅游学院</text></g><g class="node" transform="translate(-121.6968448566023,105.90705012094433)"><circle class="outline" cx="0" cy="0" r="25" fill="#57C7E3" stroke="#23b3d7" stroke-width="2px"/><text text-anchor="middle" pointer-events="none" font-family="sans-serif" dy="1.5625" font-size="25" fill="#FFFFFF"/><text text-anchor="middle" pointer-events="none" y="5" font-size="10px" fill="#FFFFFF" font-family="sans-serif"> 珠海校区</text></g></g></svg>